<svg width="14" height="15" viewBox="0 0 14 15" fill="none" xmlns="http://www.w3.org/2000/svg">
<path d="M0.25 7.50415C0.25 7.08994 0.585786 6.75415 1 6.75415H13C13.4142 6.75415 13.75 7.08994 13.75 7.50415C13.75 7.91836 13.4142 8.25415 13 8.25415H1C0.585786 8.25415 0.25 7.91836 0.25 7.50415Z" fill="#242B35"/>
<path d="M6.46967 0.96967C6.76256 0.676777 7.23744 0.676777 7.53033 0.96967L13.5303 6.96967C13.8232 7.26256 13.8232 7.73744 13.5303 8.03033L7.53033 14.0303C7.23744 14.3232 6.76256 14.3232 6.46967 14.0303C6.17678 13.7374 6.17678 13.2626 6.46967 12.9697L11.9393 7.5L6.46967 2.03033C6.17678 1.73744 6.17678 1.26256 6.46967 0.96967Z" fill="#242B35"/>
</svg>
