<svg width="38" height="34" viewBox="0 0 38 34" fill="none" xmlns="http://www.w3.org/2000/svg">
<path d="M0.368028 1.42684C0.573753 0.987606 1.01499 0.707031 1.50002 0.707031H4.41668C4.99027 0.707031 5.49025 1.0974 5.62936 1.65386L6.64265 5.70703H37.2677L32.476 24.8737H8.85738L4.52335 7.5376L0.539739 2.75726C0.229235 2.38466 0.162304 1.86607 0.368028 1.42684ZM7.26765 8.20703L10.8093 22.3737H30.524L34.0657 8.20703H7.26765ZM9.83335 28.207C9.14299 28.207 8.58335 28.7667 8.58335 29.457C8.58335 30.1474 9.14299 30.707 9.83335 30.707C10.5237 30.707 11.0833 30.1474 11.0833 29.457C11.0833 28.7667 10.5237 28.207 9.83335 28.207ZM6.08335 29.457C6.08335 27.386 7.76228 25.707 9.83335 25.707C11.9044 25.707 13.5834 27.386 13.5834 29.457C13.5834 31.5281 11.9044 33.207 9.83335 33.207C7.76228 33.207 6.08335 31.5281 6.08335 29.457ZM31.5 28.207C30.8097 28.207 30.25 28.7667 30.25 29.457C30.25 30.1474 30.8097 30.707 31.5 30.707C32.1904 30.707 32.75 30.1474 32.75 29.457C32.75 28.7667 32.1904 28.207 31.5 28.207ZM27.75 29.457C27.75 27.386 29.4289 25.707 31.5 25.707C33.5711 25.707 35.25 27.386 35.25 29.457C35.25 31.5281 33.5711 33.207 31.5 33.207C29.4289 33.207 27.75 31.5281 27.75 29.457Z" fill="#222222"/>
</svg>
