<svg width="24" height="24" viewBox="0 0 24 24" fill="none" xmlns="http://www.w3.org/2000/svg">
<path d="M1.25 12C1.25 6.06294 6.06294 1.25 12 1.25C17.9371 1.25 22.75 6.06294 22.75 12C22.75 17.9371 17.9371 22.75 12 22.75C6.06294 22.75 1.25 17.9371 1.25 12ZM12 2.75C6.89136 2.75 2.75 6.89136 2.75 12C2.75 17.1086 6.89136 21.25 12 21.25C17.1086 21.25 21.25 17.1086 21.25 12C21.25 6.89136 17.1086 2.75 12 2.75Z" fill="#505050"/>
<path d="M6.96967 9.96967C7.26256 9.67678 7.73744 9.67678 8.03033 9.96967L12 13.9393L15.9697 9.96967C16.2626 9.67678 16.7374 9.67678 17.0303 9.96967C17.3232 10.2626 17.3232 10.7374 17.0303 11.0303L12.5303 15.5303C12.2374 15.8232 11.7626 15.8232 11.4697 15.5303L6.96967 11.0303C6.67678 10.7374 6.67678 10.2626 6.96967 9.96967Z" fill="#505050"/>
</svg>
