<svg width="17" height="16" viewBox="0 0 17 16" fill="none" xmlns="http://www.w3.org/2000/svg">
<path d="M14.5 7.5C14.7761 7.5 15 7.72386 15 8V14C15 14.2761 14.7761 14.5 14.5 14.5H2.5C2.22386 14.5 2 14.2761 2 14V8.00277C2 7.72662 2.22386 7.50277 2.5 7.50277C2.77614 7.50277 3 7.72662 3 8.00277V13.5H14V8C14 7.72386 14.2239 7.5 14.5 7.5Z" fill="white"/>
<path d="M5.14645 7.31311C5.34171 7.11785 5.65829 7.11785 5.85355 7.31311L8.5 9.95956L11.1464 7.31311C11.3417 7.11785 11.6583 7.11785 11.8536 7.31311C12.0488 7.50838 12.0488 7.82496 11.8536 8.02022L8.85355 11.0202C8.65829 11.2155 8.34171 11.2155 8.14645 11.0202L5.14645 8.02022C4.95118 7.82496 4.95118 7.50838 5.14645 7.31311Z" fill="white"/>
<path d="M8.49723 1.5C8.77338 1.5 8.99723 1.72386 8.99723 2V10.6667C8.99723 10.9428 8.77338 11.1667 8.49723 11.1667C8.22109 11.1667 7.99723 10.9428 7.99723 10.6667V2C7.99723 1.72386 8.22109 1.5 8.49723 1.5Z" fill="white"/>
</svg>
