<svg width="20" height="21" viewBox="0 0 20 21" fill="none" xmlns="http://www.w3.org/2000/svg">
<path d="M10.0013 2.79102C8.73565 2.79102 7.70964 3.81703 7.70964 5.08268C7.70964 6.34834 8.73565 7.37435 10.0013 7.37435C11.267 7.37435 12.293 6.34834 12.293 5.08268C12.293 3.81703 11.267 2.79102 10.0013 2.79102ZM6.45964 5.08268C6.45964 3.12667 8.04529 1.54102 10.0013 1.54102C11.9573 1.54102 13.543 3.12667 13.543 5.08268C13.543 7.03869 11.9573 8.62435 10.0013 8.62435C8.04529 8.62435 6.45964 7.03869 6.45964 5.08268Z" fill="#242B35"/>
<path d="M9.16797 11.541C5.29978 11.541 2.29297 14.3131 2.29297 17.5827C2.29297 17.9279 2.01315 18.2077 1.66797 18.2077C1.32279 18.2077 1.04297 17.9279 1.04297 17.5827C1.04297 13.4884 4.75191 10.291 9.16797 10.291C9.51315 10.291 9.79297 10.5708 9.79297 10.916C9.79297 11.2612 9.51315 11.541 9.16797 11.541Z" fill="#242B35"/>
<path d="M14.976 11.7241L10.8094 15.8907C10.6922 16.008 10.6263 16.1669 10.6263 16.3327V17.9993C10.6263 18.3445 10.9061 18.6243 11.2513 18.6243H12.918C13.0837 18.6243 13.2427 18.5585 13.3599 18.4413L17.5266 14.2746C17.7707 14.0305 17.7707 13.6348 17.5266 13.3907L15.8599 11.7241C15.6158 11.48 15.2201 11.48 14.976 11.7241ZM11.8763 16.5916L15.418 13.0499L16.2008 13.8327L12.6591 17.3743H11.8763V16.5916Z" fill="#242B35"/>
</svg>
