<svg width="24" height="24" viewBox="0 0 24 24" fill="none" xmlns="http://www.w3.org/2000/svg">
<path fill-rule="evenodd" clip-rule="evenodd" d="M21.798 12.2402C21.798 11.5311 21.7344 10.8492 21.6162 10.1947H12.198V14.0629H17.5798C17.348 15.3129 16.6435 16.372 15.5844 17.0811V19.5902H18.8162C20.7071 17.8492 21.798 15.2856 21.798 12.2402Z" fill="#4285F4"/>
<path fill-rule="evenodd" clip-rule="evenodd" d="M12.2016 21.9995C14.9016 21.9995 17.1653 21.1041 18.8198 19.5768L15.588 17.0677C14.6925 17.6677 13.5471 18.0223 12.2016 18.0223C9.59708 18.0223 7.39253 16.2632 6.60617 13.8995H3.26526V16.4904C4.91071 19.7586 8.29253 21.9995 12.2016 21.9995Z" fill="#34A853"/>
<path fill-rule="evenodd" clip-rule="evenodd" d="M6.60651 13.9142C6.40651 13.3142 6.29287 12.6733 6.29287 12.0142C6.29287 11.3551 6.40651 10.7142 6.60651 10.1142V7.52325H3.2656C2.58833 8.87325 2.20197 10.4005 2.20197 12.0142C2.20197 13.6278 2.58833 15.1551 3.2656 16.5051L6.60651 13.9142Z" fill="#FBBC05"/>
<path fill-rule="evenodd" clip-rule="evenodd" d="M12.2016 5.97776C13.6698 5.97776 14.988 6.48231 16.0244 7.47322L18.8925 4.60503C17.1607 2.9914 14.8971 2.00049 12.2016 2.00049C8.29253 2.00049 4.91071 4.2414 3.26526 7.50958L6.60617 10.1005C7.39253 7.73685 9.59708 5.97776 12.2016 5.97776Z" fill="#EA4335"/>
</svg>
