<svg width="20" height="21" viewBox="0 0 20 21" fill="none" xmlns="http://www.w3.org/2000/svg">
<path d="M3.33333 10.3105C3.21827 10.3105 3.125 10.4038 3.125 10.5189V18.0189C3.125 18.1339 3.21827 18.2272 3.33333 18.2272H16.6667C16.7817 18.2272 16.875 18.1339 16.875 18.0189V10.5189C16.875 10.4038 16.7817 10.3105 16.6667 10.3105H3.33333ZM1.875 10.5189C1.875 9.71347 2.52792 9.06055 3.33333 9.06055H16.6667C17.4721 9.06055 18.125 9.71347 18.125 10.5189V18.0189C18.125 18.8243 17.4721 19.4772 16.6667 19.4772H3.33333C2.52792 19.4772 1.875 18.8243 1.875 18.0189V10.5189Z" fill="#242B35"/>
<path d="M10 2.81055C8.04401 2.81055 6.45833 4.39621 6.45833 6.35221V9.68555C6.45833 10.0307 6.17851 10.3105 5.83333 10.3105C5.48816 10.3105 5.20833 10.0307 5.20833 9.68555V6.35221C5.20833 3.70585 7.35366 1.56055 10 1.56055C12.6463 1.56055 14.7917 3.70585 14.7917 6.35221V9.68555C14.7917 10.0307 14.5118 10.3105 14.1667 10.3105C13.8215 10.3105 13.5417 10.0307 13.5417 9.68555V6.35221C13.5417 4.39621 11.956 2.81055 10 2.81055Z" fill="#242B35"/>
<path d="M10 12.3939C10.3452 12.3939 10.625 12.6737 10.625 13.0189V15.5189C10.625 15.8641 10.3452 16.1439 10 16.1439C9.65482 16.1439 9.375 15.8641 9.375 15.5189V13.0189C9.375 12.6737 9.65482 12.3939 10 12.3939Z" fill="#242B35"/>
</svg>
