<svg width="160" height="24" viewBox="0 0 160 24" fill="none" xmlns="http://www.w3.org/2000/svg">
<g clip-path="url(#clip0_12078_1046)">
<path d="M114.56 0.00781832H72.6238C72.5181 0.00750477 72.4127 0.0198698 72.3092 0.0447147C71.9555 0.121962 71.6363 0.338211 71.4066 0.656238C71.1769 0.974265 71.0511 1.37417 71.0508 1.78711V22.1916C71.0508 22.6635 71.2143 23.1161 71.5052 23.4498C71.7962 23.7835 72.1909 23.9709 72.6024 23.9709C72.6802 23.969 72.7579 23.9608 72.8348 23.9463H88.9227C89.1269 23.9463 89.3292 23.9002 89.5178 23.8106C89.7065 23.7209 89.878 23.5896 90.0224 23.424C90.1668 23.2584 90.2813 23.0618 90.3595 22.8454C90.4376 22.629 90.4779 22.3971 90.4779 22.1629C90.4779 21.6896 90.3141 21.2355 90.0226 20.9004C89.731 20.5653 89.3355 20.3765 88.9227 20.3754H74.1611V13.7871H88.937C89.337 13.7651 89.7143 13.5674 89.9906 13.235C90.267 12.9026 90.4211 12.4609 90.4211 12.0017C90.4211 11.5424 90.267 11.1008 89.9906 10.7683C89.7143 10.4359 89.337 10.2382 88.937 10.2162H74.1611V3.57461H99.5193V22.2121C99.5202 22.6801 99.683 23.1284 99.9719 23.4589C100.261 23.7894 100.652 23.975 101.06 23.975H101.092C101.5 23.975 101.892 23.7894 102.181 23.4589C102.469 23.1284 102.632 22.6801 102.633 22.2121V3.57461H114.56C114.972 3.57461 115.368 3.38672 115.659 3.05227C115.951 2.71782 116.115 2.2642 116.115 1.79122C116.115 1.31823 115.951 0.864618 115.659 0.530166C115.368 0.195715 114.972 0.00781832 114.56 0.00781832Z" fill="#222222"/>
<path d="M136.036 20.3809H119.723C118.864 20.3809 118.168 21.1793 118.168 22.1643C118.168 23.1492 118.864 23.9477 119.723 23.9477H136.036C136.895 23.9477 137.591 23.1492 137.591 22.1643C137.591 21.1793 136.895 20.3809 136.036 20.3809Z" fill="#222222"/>
<path d="M136.036 10.2168H119.722C119.322 10.2388 118.945 10.4365 118.669 10.7689C118.392 11.1013 118.238 11.543 118.238 12.0022C118.238 12.4615 118.392 12.9031 118.669 13.2356C118.945 13.568 119.322 13.7657 119.722 13.7877H136.036C136.436 13.7657 136.813 13.568 137.089 13.2356C137.366 12.9031 137.52 12.4615 137.52 12.0022C137.52 11.543 137.366 11.1013 137.089 10.7689C136.813 10.4365 136.436 10.2388 136.036 10.2168Z" fill="#222222"/>
<path d="M136.036 0H119.723C119.311 3.98698e-08 118.915 0.187896 118.623 0.522348C118.332 0.856799 118.168 1.31041 118.168 1.7834C118.168 2.25638 118.332 2.71 118.623 3.04445C118.915 3.3789 119.311 3.5668 119.723 3.5668H136.036C136.241 3.5668 136.443 3.52066 136.631 3.43104C136.82 3.34142 136.992 3.21005 137.136 3.04445C137.28 2.87885 137.395 2.68225 137.473 2.46587C137.551 2.2495 137.591 2.0176 137.591 1.7834C137.591 1.5492 137.551 1.31729 137.473 1.10092C137.395 0.884551 137.28 0.687952 137.136 0.522348C136.992 0.356744 136.82 0.22538 136.631 0.135756C136.443 0.0461318 136.241 -1.97415e-08 136.036 0Z" fill="#222222"/>
<path d="M17.8684 0.0078125H1.55517C1.14271 0.00781254 0.747157 0.195709 0.455507 0.53016C0.163856 0.864612 0 1.31822 0 1.79121C0 2.2642 0.163856 2.71781 0.455507 3.05226C0.747157 3.38671 1.14271 3.5746 1.55517 3.5746H8.15481V22.1916C8.15481 22.6635 8.31828 23.1161 8.60926 23.4498C8.90024 23.7835 9.2949 23.9709 9.7064 23.9709C10.1179 23.9709 10.5126 23.7835 10.8035 23.4498C11.0945 23.1161 11.258 22.6635 11.258 22.1916V3.5746H17.8576C18.2701 3.5746 18.6656 3.38671 18.9573 3.05226C19.249 2.71781 19.4128 2.2642 19.4128 1.79121C19.4128 1.31822 19.249 0.864612 18.9573 0.53016C18.6656 0.195709 18.2701 0.0078125 17.8576 0.0078125H17.8684Z" fill="#222222"/>
<path d="M22.8205 0.0078125H22.8133C21.9564 0.0078125 21.2617 0.804431 21.2617 1.78711V22.1793C21.2617 23.162 21.9564 23.9586 22.8133 23.9586H22.8205C23.6774 23.9586 24.3721 23.162 24.3721 22.1793V1.78711C24.3721 0.804431 23.6774 0.0078125 22.8205 0.0078125Z" fill="#222222"/>
<path d="M50.3481 0.0078125C49.9357 0.0078125 49.5401 0.195709 49.2485 0.53016C48.9568 0.864612 48.793 1.31822 48.793 1.79121V22.1916C48.8121 22.6503 48.9845 23.083 49.2744 23.3999C49.5643 23.7168 49.9494 23.8935 50.3499 23.8935C50.7504 23.8935 51.1355 23.7168 51.4254 23.3999C51.7153 23.083 51.8877 22.6503 51.9069 22.1916V1.79121C51.9059 1.31785 51.7413 0.864244 51.4491 0.52991C51.1569 0.195576 50.7609 0.00781125 50.3481 0.0078125Z" fill="#222222"/>
<path d="M67.3726 0.0078125C66.9459 0.0078125 66.5367 0.202186 66.235 0.548171C65.9333 0.894155 65.7638 1.36341 65.7638 1.8527V4.31256C65.7638 5.89972 65.2145 7.422 64.2365 8.54506C63.2585 9.66812 61.9318 10.3001 60.5477 10.3023H54.6417C54.2708 10.3022 53.9113 10.4491 53.624 10.718C53.3367 10.987 53.1392 11.3615 53.0651 11.7782C53.042 11.9022 53.03 12.0286 53.0293 12.1554C53.0293 12.6447 53.1988 13.114 53.5005 13.4599C53.8022 13.8059 54.2114 14.0003 54.6381 14.0003H60.5442C61.9272 14.0014 63.2534 14.6319 64.2314 15.7535C65.2094 16.875 65.7593 18.3958 65.7602 19.9818V22.1096C65.7602 22.5989 65.9297 23.0682 66.2314 23.4142C66.5331 23.7601 66.9423 23.9545 67.369 23.9545C67.7957 23.9545 68.2049 23.7601 68.5066 23.4142C68.8083 23.0682 68.9778 22.5989 68.9778 22.1096V19.9818C68.9771 18.4529 68.6601 16.9459 68.0529 15.5847C67.4457 14.2234 66.5657 13.0468 65.4849 12.1513C66.5667 11.2567 67.4478 10.0804 68.0557 8.71901C68.6636 7.35765 68.9808 5.85021 68.9814 4.32076V1.86091C68.9819 1.61809 68.9406 1.37755 68.86 1.15301C68.7794 0.928477 68.6611 0.724344 68.5117 0.552268C68.3623 0.380193 68.1848 0.243542 67.9893 0.150124C67.7939 0.0567065 67.5843 0.00835029 67.3726 0.0078125Z" fill="#222222"/>
<path d="M157.225 12.5949C158.071 11.9828 158.769 11.1359 159.254 10.1327C159.739 9.12948 159.995 8.00222 160 6.8552C159.979 5.0161 159.323 3.26153 158.176 1.97644C157.028 0.691356 155.483 -0.0192984 153.879 0.0003988H141.195C140.768 0.0003988 140.359 0.194773 140.057 0.540757C139.755 0.886741 139.586 1.356 139.586 1.84529C139.586 2.33459 139.755 2.80385 140.057 3.14983C140.359 3.49582 140.768 3.69018 141.195 3.69018H153.879C154.256 3.66826 154.632 3.73441 154.986 3.8846C155.34 4.03479 155.663 4.26589 155.936 4.56385C156.21 4.86181 156.427 5.2204 156.576 5.61783C156.725 6.01526 156.802 6.44322 156.802 6.8757C156.802 7.30818 156.725 7.73614 156.576 8.13357C156.427 8.531 156.21 8.88959 155.936 9.18755C155.663 9.48551 155.34 9.71661 154.986 9.8668C154.632 10.017 154.256 10.0831 153.879 10.0612H141.195C140.768 10.0612 140.359 10.2556 140.057 10.6016C139.755 10.9476 139.586 11.4168 139.586 11.9061C139.586 12.3954 139.755 12.8647 140.057 13.2106C140.359 13.5566 140.768 13.751 141.195 13.751H145.331C145.433 13.7723 145.535 13.7832 145.639 13.7838H151.545C152.923 13.7859 154.244 14.4123 155.221 15.5265C156.198 16.6407 156.751 18.1525 156.761 19.7325V22.1145C156.761 22.6038 156.93 23.0731 157.232 23.419C157.534 23.765 157.943 23.9594 158.37 23.9594C158.796 23.9594 159.205 23.765 159.507 23.419C159.809 23.0731 159.978 22.6038 159.978 22.1145V19.7325C159.979 18.3884 159.734 17.059 159.26 15.8297C158.786 14.6005 158.093 13.4986 157.225 12.5949Z" fill="#222222"/>
<path d="M44.7857 3.66909C45.2095 3.66909 45.616 3.47602 45.9157 3.13234C46.2154 2.78866 46.3838 2.32253 46.3838 1.8365C46.3838 1.35047 46.2154 0.884339 45.9157 0.540661C45.616 0.196983 45.2095 0.00390625 44.7857 0.00390625H30.1492C29.2959 0.00390625 28.4775 0.392648 27.8741 1.08462C27.2706 1.77659 26.9316 2.7151 26.9316 3.69369V20.3182C26.9316 21.2968 27.2706 22.2353 27.8741 22.9273C28.4775 23.6193 29.2959 24.008 30.1492 24.008H44.7857C45.2095 24.008 45.616 23.8149 45.9157 23.4713C46.2154 23.1276 46.3838 22.6614 46.3838 22.1754C46.3838 21.6894 46.2154 21.2233 45.9157 20.8796C45.616 20.5359 45.2095 20.3428 44.7857 20.3428L30.1278 20.3223L30.1457 3.67729L44.7857 3.66909Z" fill="#222222"/>
</g>
<defs>
<clipPath id="clip0_12078_1046">
<rect width="160" height="24" fill="white"/>
</clipPath>
</defs>
</svg>
