<svg width="160" height="25" viewBox="0 0 160 25" fill="none" xmlns="http://www.w3.org/2000/svg">
<g clip-path="url(#clip0_11015_3704)">
<path d="M114.56 0.96485H72.6238C72.5181 0.964536 72.4127 0.976901 72.3092 1.00175C71.9555 1.07899 71.6363 1.29524 71.4066 1.61327C71.1769 1.9313 71.0511 2.3312 71.0508 2.74414V23.1487C71.0508 23.6206 71.2143 24.0731 71.5052 24.4068C71.7962 24.7405 72.1909 24.928 72.6024 24.928C72.6802 24.926 72.7579 24.9178 72.8348 24.9034H88.9227C89.1269 24.9034 89.3292 24.8572 89.5178 24.7676C89.7065 24.678 89.878 24.5466 90.0224 24.381C90.1668 24.2154 90.2813 24.0188 90.3595 23.8024C90.4376 23.5861 90.4779 23.3542 90.4779 23.12C90.4779 22.6466 90.3141 22.1926 90.0226 21.8575C89.731 21.5224 89.3355 21.3336 88.9227 21.3325H74.1611V14.7441H88.937C89.337 14.7222 89.7143 14.5244 89.9906 14.192C90.267 13.8596 90.4211 13.418 90.4211 12.9587C90.4211 12.4994 90.267 12.0578 89.9906 11.7254C89.7143 11.393 89.337 11.1952 88.937 11.1733H74.1611V4.53164H99.5193V23.1692C99.5202 23.6371 99.683 24.0855 99.9719 24.416C100.261 24.7465 100.652 24.9321 101.06 24.9321H101.092C101.5 24.9321 101.892 24.7465 102.181 24.416C102.469 24.0855 102.632 23.6371 102.633 23.1692V4.53164H114.56C114.972 4.53164 115.368 4.34375 115.659 4.0093C115.951 3.67485 116.115 3.22123 116.115 2.74825C116.115 2.27526 115.951 1.82165 115.659 1.4872C115.368 1.15275 114.972 0.96485 114.56 0.96485Z" fill="#222222"/>
<path d="M136.036 21.3379H119.723C118.864 21.3379 118.168 22.1363 118.168 23.1213C118.168 24.1062 118.864 24.9047 119.723 24.9047H136.036C136.895 24.9047 137.591 24.1062 137.591 23.1213C137.591 22.1363 136.895 21.3379 136.036 21.3379Z" fill="#222222"/>
<path d="M136.036 11.1738H119.722C119.322 11.1958 118.945 11.3935 118.669 11.726C118.392 12.0584 118.238 12.5 118.238 12.9593C118.238 13.4185 118.392 13.8602 118.669 14.1926C118.945 14.525 119.322 14.7227 119.722 14.7447H136.036C136.436 14.7227 136.813 14.525 137.089 14.1926C137.366 13.8602 137.52 13.4185 137.52 12.9593C137.52 12.5 137.366 12.0584 137.089 11.726C136.813 11.3935 136.436 11.1958 136.036 11.1738Z" fill="#222222"/>
<path d="M136.036 0.957031H119.723C119.311 0.957031 118.915 1.14493 118.623 1.47938C118.332 1.81383 118.168 2.26744 118.168 2.74043C118.168 3.21342 118.332 3.66703 118.623 4.00148C118.915 4.33593 119.311 4.52383 119.723 4.52383H136.036C136.241 4.52383 136.443 4.4777 136.631 4.38807C136.82 4.29845 136.992 4.16708 137.136 4.00148C137.28 3.83588 137.395 3.63928 137.473 3.42291C137.551 3.20653 137.591 2.97463 137.591 2.74043C137.591 2.50623 137.551 2.27433 137.473 2.05795C137.395 1.84158 137.28 1.64498 137.136 1.47938C136.992 1.31378 136.82 1.18241 136.631 1.09279C136.443 1.00316 136.241 0.957031 136.036 0.957031Z" fill="#222222"/>
<path d="M17.8684 0.964844H1.55517C1.14271 0.964844 0.747157 1.15274 0.455507 1.48719C0.163856 1.82164 0 2.27526 0 2.74824C0 3.22123 0.163856 3.67484 0.455507 4.00929C0.747157 4.34374 1.14271 4.53163 1.55517 4.53163H8.15481V23.1486C8.15481 23.6205 8.31828 24.0731 8.60926 24.4068C8.90024 24.7405 9.2949 24.9279 9.7064 24.9279C10.1179 24.9279 10.5126 24.7405 10.8035 24.4068C11.0945 24.0731 11.258 23.6205 11.258 23.1486V4.53163H17.8576C18.2701 4.53163 18.6656 4.34374 18.9573 4.00929C19.249 3.67484 19.4128 3.22123 19.4128 2.74824C19.4128 2.27526 19.249 1.82164 18.9573 1.48719C18.6656 1.15274 18.2701 0.964844 17.8576 0.964844H17.8684Z" fill="#222222"/>
<path d="M22.8205 0.964844H22.8133C21.9564 0.964844 21.2617 1.76146 21.2617 2.74414V23.1364C21.2617 24.119 21.9564 24.9156 22.8133 24.9156H22.8205C23.6774 24.9156 24.3721 24.119 24.3721 23.1364V2.74414C24.3721 1.76146 23.6774 0.964844 22.8205 0.964844Z" fill="#222222"/>
<path d="M50.3481 0.964844C49.9357 0.964844 49.5401 1.15274 49.2485 1.48719C48.9568 1.82164 48.793 2.27526 48.793 2.74824V23.1486C48.8121 23.6074 48.9845 24.04 49.2744 24.3569C49.5643 24.6738 49.9494 24.8506 50.3499 24.8506C50.7504 24.8506 51.1355 24.6738 51.4254 24.3569C51.7153 24.04 51.8877 23.6074 51.9069 23.1486V2.74824C51.9059 2.27488 51.7413 1.82128 51.4491 1.48694C51.1569 1.15261 50.7609 0.964843 50.3481 0.964844Z" fill="#222222"/>
<path d="M67.3726 0.964844C66.9459 0.964844 66.5367 1.15922 66.235 1.5052C65.9333 1.85119 65.7638 2.32044 65.7638 2.80974V5.26959C65.7638 6.85675 65.2145 8.37903 64.2365 9.50209C63.2585 10.6251 61.9318 11.2572 60.5477 11.2593H54.6417C54.2708 11.2593 53.9113 11.4061 53.624 11.6751C53.3367 11.944 53.1392 12.3185 53.0651 12.7353C53.042 12.8593 53.03 12.9856 53.0293 13.1124C53.0293 13.6017 53.1988 14.071 53.5005 14.417C53.8022 14.763 54.2114 14.9573 54.6381 14.9573H60.5442C61.9272 14.9584 63.2534 15.589 64.2314 16.7105C65.2094 17.832 65.7593 19.3528 65.7602 20.9389V23.0667C65.7602 23.556 65.9297 24.0252 66.2314 24.3712C66.5331 24.7172 66.9423 24.9115 67.369 24.9115C67.7957 24.9115 68.2049 24.7172 68.5066 24.3712C68.8083 24.0252 68.9778 23.556 68.9778 23.0667V20.9389C68.9771 19.4099 68.6601 17.9029 68.0529 16.5417C67.4457 15.1805 66.5657 14.0038 65.4849 13.1083C66.5667 12.2138 67.4478 11.0374 68.0557 9.67604C68.6636 8.31468 68.9808 6.80725 68.9814 5.27779V2.81794C68.9819 2.57512 68.9406 2.33458 68.86 2.11004C68.7794 1.88551 68.6611 1.68138 68.5117 1.5093C68.3623 1.33722 68.1848 1.20057 67.9893 1.10716C67.7939 1.01374 67.5843 0.965382 67.3726 0.964844Z" fill="#222222"/>
<path d="M157.225 13.5519C158.071 12.9398 158.769 12.093 159.254 11.0897C159.739 10.0865 159.995 8.95926 160 7.81223C159.979 5.97313 159.323 4.21856 158.176 2.93347C157.028 1.64839 155.483 0.937733 153.879 0.95743H141.195C140.768 0.95743 140.359 1.1518 140.057 1.49779C139.755 1.84377 139.586 2.31303 139.586 2.80232C139.586 3.29162 139.755 3.76088 140.057 4.10686C140.359 4.45285 140.768 4.64721 141.195 4.64721H153.879C154.256 4.62529 154.632 4.69144 154.986 4.84163C155.34 4.99182 155.663 5.22292 155.936 5.52088C156.21 5.81884 156.427 6.17744 156.576 6.57486C156.725 6.97229 156.802 7.40025 156.802 7.83273C156.802 8.26521 156.725 8.69317 156.576 9.0906C156.427 9.48803 156.21 9.84662 155.936 10.1446C155.663 10.4425 155.34 10.6736 154.986 10.8238C154.632 10.974 154.256 11.0402 153.879 11.0182H141.195C140.768 11.0182 140.359 11.2126 140.057 11.5586C139.755 11.9046 139.586 12.3738 139.586 12.8631C139.586 13.3524 139.755 13.8217 140.057 14.1677C140.359 14.5137 140.768 14.708 141.195 14.708H145.331C145.433 14.7293 145.535 14.7403 145.639 14.7408H151.545C152.923 14.743 154.244 15.3693 155.221 16.4836C156.198 17.5978 156.751 19.1095 156.761 20.6896V23.0715C156.761 23.5608 156.93 24.0301 157.232 24.3761C157.534 24.7221 157.943 24.9164 158.37 24.9164C158.796 24.9164 159.205 24.7221 159.507 24.3761C159.809 24.0301 159.978 23.5608 159.978 23.0715V20.6896C159.979 19.3455 159.734 18.016 159.26 16.7868C158.786 15.5575 158.093 14.4556 157.225 13.5519Z" fill="#222222"/>
<path d="M44.7857 4.62612C45.2095 4.62612 45.616 4.43305 45.9157 4.08937C46.2154 3.74569 46.3838 3.27957 46.3838 2.79353C46.3838 2.3075 46.2154 1.84137 45.9157 1.49769C45.616 1.15401 45.2095 0.960938 44.7857 0.960938H30.1492C29.2959 0.960938 28.4775 1.34968 27.8741 2.04165C27.2706 2.73362 26.9316 3.67213 26.9316 4.65072V21.2752C26.9316 22.2538 27.2706 23.1924 27.8741 23.8843C28.4775 24.5763 29.2959 24.965 30.1492 24.965H44.7857C45.2095 24.965 45.616 24.772 45.9157 24.4283C46.2154 24.0846 46.3838 23.6185 46.3838 23.1324C46.3838 22.6464 46.2154 22.1803 45.9157 21.8366C45.616 21.4929 45.2095 21.2999 44.7857 21.2999L30.1278 21.2794L30.1457 4.63432L44.7857 4.62612Z" fill="#222222"/>
</g>
<defs>
<clipPath id="clip0_11015_3704">
<rect width="160" height="24" fill="white" transform="translate(0 0.957031)"/>
</clipPath>
</defs>
</svg>
