<svg width="24" height="25" viewBox="0 0 24 25" fill="none" xmlns="http://www.w3.org/2000/svg">
<path fill-rule="evenodd" clip-rule="evenodd" d="M1.59578 3.32528C1.81123 3.18743 2.08207 3.16888 2.31429 3.27606L8.51129 6.13622L15.2046 3.26767C15.3998 3.18399 15.6214 3.18704 15.8143 3.27606L22.3143 6.27606C22.5799 6.39865 22.75 6.66449 22.75 6.95703V21.957C22.75 22.2128 22.6197 22.4509 22.4042 22.5888C22.1888 22.7266 21.9179 22.7452 21.6857 22.638L15.4887 19.7778L8.79544 22.6464C8.60018 22.7301 8.37859 22.727 8.18571 22.638L1.68571 19.638C1.42009 19.5154 1.25 19.2496 1.25 18.957V3.95703C1.25 3.70126 1.38034 3.46313 1.59578 3.32528ZM15.4887 4.77785L8.79544 7.64639C8.60018 7.73007 8.37859 7.72703 8.18571 7.638L2.75 5.12921V18.4772L8.51129 21.1362L15.2046 18.2677C15.3998 18.184 15.6214 18.187 15.8143 18.2761L21.25 20.7849V7.43691L15.4887 4.77785Z" fill="#222222"/>
<path fill-rule="evenodd" clip-rule="evenodd" d="M15.5 3.20703C15.9142 3.20703 16.25 3.54282 16.25 3.95703V18.957C16.25 19.3712 15.9142 19.707 15.5 19.707C15.0858 19.707 14.75 19.3712 14.75 18.957V3.95703C14.75 3.54282 15.0858 3.20703 15.5 3.20703Z" fill="#222222"/>
<path fill-rule="evenodd" clip-rule="evenodd" d="M8.5 6.20703C8.91421 6.20703 9.25 6.54282 9.25 6.95703V21.957C9.25 22.3712 8.91421 22.707 8.5 22.707C8.08579 22.707 7.75 22.3712 7.75 21.957V6.95703C7.75 6.54282 8.08579 6.20703 8.5 6.20703Z" fill="#222222"/>
<path fill-rule="evenodd" clip-rule="evenodd" d="M15.2046 3.26767C15.3998 3.18399 15.6214 3.18704 15.8143 3.27606L19.0645 4.77606C19.4406 4.94964 19.6047 5.39524 19.4312 5.77132C19.2576 6.14741 18.812 6.31158 18.4359 6.138L15.4887 4.77785L8.79544 7.64639C8.60018 7.73007 8.37859 7.72703 8.18571 7.638L4.93589 6.138C4.5598 5.96442 4.39563 5.51883 4.56921 5.14274C4.74279 4.76665 5.18839 4.60248 5.56447 4.77606L8.51129 6.13622L15.2046 3.26767Z" fill="#222222"/>
<path fill-rule="evenodd" clip-rule="evenodd" d="M15.2046 18.2677C15.3998 18.184 15.6214 18.187 15.8143 18.2761L19.0645 19.7761C19.4406 19.9496 19.6047 20.3952 19.4312 20.7713C19.2576 21.1474 18.812 21.3116 18.4359 21.138L15.4887 19.7778L8.79544 22.6464C8.60018 22.7301 8.37859 22.727 8.18571 22.638L4.93589 21.138C4.5598 20.9644 4.39563 20.5188 4.56921 20.1427C4.74279 19.7666 5.18839 19.6025 5.56447 19.7761L8.51129 21.1362L15.2046 18.2677Z" fill="#222222"/>
</svg>
