<svg width="22" height="23" viewBox="0 0 22 23" fill="none" xmlns="http://www.w3.org/2000/svg">
<path d="M19.8265 5.81055C19.8024 5.94569 19.7749 6.08386 19.744 6.2258C18.6808 11.0208 15.0435 12.6773 10.398 12.6773H8.0327C7.46458 12.6773 6.98585 13.0397 6.89733 13.532L5.68632 20.2787L5.34339 22.1912C5.2858 22.5143 5.56943 22.8057 5.94072 22.8057H10.1358C10.6326 22.8057 11.0546 22.4886 11.1328 22.0583L11.1741 21.871L11.964 17.4678L12.0147 17.2262C12.092 16.7944 12.5149 16.4773 13.0117 16.4773H13.6391C17.7036 16.4773 20.8854 15.0277 21.8153 10.8328C22.2038 9.08048 22.0027 7.61728 20.9747 6.5882C20.6636 6.2779 20.2777 6.02044 19.8265 5.81055Z" fill="#179BD7"/>
<path d="M18.6959 6.20827C18.5334 6.16674 18.3658 6.12899 18.194 6.09502C18.0212 6.0618 17.8441 6.03235 17.6619 6.00668C17.0242 5.91608 16.3254 5.87305 15.5768 5.87305H9.25795C9.10238 5.87305 8.95455 5.904 8.82219 5.95987C8.53083 6.08294 8.31424 6.3253 8.26181 6.62201L6.91758 14.1011L6.87891 14.3193C6.96743 13.827 7.44616 13.4646 8.01428 13.4646H10.3796C15.0251 13.4646 18.6624 11.8074 19.7255 7.01311C19.7573 6.87116 19.784 6.733 19.8081 6.59785C19.539 6.47252 19.2477 6.36531 18.934 6.27395C18.8566 6.2513 18.7767 6.22941 18.6959 6.20827Z" fill="#222D65"/>
<path d="M8.26303 6.61943C8.31546 6.32271 8.53204 6.08036 8.82341 5.95804C8.95663 5.90217 9.1036 5.87122 9.25916 5.87122H15.5781C16.3267 5.87122 17.0254 5.91425 17.6632 6.00486C17.8454 6.03053 18.0224 6.05997 18.1952 6.09319C18.3671 6.12717 18.5347 6.16492 18.6971 6.20644C18.7779 6.22758 18.8578 6.24948 18.936 6.27137C19.2498 6.36273 19.5411 6.47069 19.8101 6.59527C20.1264 4.82327 19.8076 3.61677 18.7169 2.52428C17.5145 1.32155 15.3443 0.806641 12.5673 0.806641H4.50538C3.93813 0.806641 3.45424 1.16904 3.36657 1.66206L0.00858519 20.3598C-0.0575947 20.7297 0.267289 21.0634 0.691871 21.0634H5.66912L6.9188 14.0985L8.26303 6.61943Z" fill="#253B80"/>
</svg>
