<svg width="16" height="16" viewBox="0 0 16 16" fill="none" xmlns="http://www.w3.org/2000/svg">
<path fill-rule="evenodd" clip-rule="evenodd" d="M11.7927 0.947228C11.988 0.751966 12.3046 0.751966 12.4998 0.947227L15.3283 3.77565C15.422 3.86942 15.4747 3.99659 15.4747 4.1292C15.4747 4.26181 15.422 4.38899 15.3283 4.48275L4.95737 14.8537C4.8636 14.9474 4.73642 15.0001 4.60381 15.0001L1.77547 15C1.49933 15 1.27549 14.7762 1.27548 14.5L1.27539 11.6717C1.27539 11.5391 1.32807 11.4119 1.42184 11.3181L11.7927 0.947228ZM12.1463 2.00789L2.2754 11.8788L2.27546 14L4.39672 14.0001L14.2676 4.1292L12.1463 2.00789Z" fill="white"/>
<path fill-rule="evenodd" clip-rule="evenodd" d="M8.96416 3.7756C9.15942 3.58033 9.476 3.58033 9.67126 3.7756L12.4997 6.60403C12.695 6.79929 12.695 7.11587 12.4997 7.31114C12.3044 7.5064 11.9879 7.5064 11.7926 7.31114L8.96416 4.4827C8.76889 4.28744 8.76889 3.97086 8.96416 3.7756Z" fill="white"/>
</svg>
