<svg width="18" height="18" viewBox="0 0 18 18" fill="none" xmlns="http://www.w3.org/2000/svg">
<path d="M2.85921 1.7196C2.05292 1.7196 1.54997 2.44209 1.78031 3.12473C2.60619 5.57237 4.1452 9.25443 6.44039 11.5496C8.73554 13.8448 12.4176 15.3838 14.8653 16.2097C15.5479 16.44 16.2704 15.9371 16.2704 15.1308V12.6454C16.2704 12.5565 16.2222 12.4746 16.1445 12.4314L13.9796 11.2278C13.9089 11.1885 13.8234 11.1866 13.7511 11.2228L11.4423 12.3771C11.298 12.4493 11.1339 12.4719 10.9753 12.4415L11.1137 11.7199C10.9753 12.4415 10.9753 12.4415 10.9753 12.4415L10.9732 12.4411L10.9705 12.4406L10.9631 12.4391L10.9409 12.4345C10.9229 12.4307 10.8986 12.4253 10.8683 12.4181C10.8079 12.4038 10.7238 12.3825 10.6202 12.3526C10.4133 12.2929 10.1266 12.1984 9.79347 12.0564C9.12999 11.7737 8.26392 11.2948 7.47955 10.5105C6.69529 9.7262 6.21504 8.85888 5.93099 8.19445C5.78833 7.86076 5.69314 7.57355 5.63288 7.3663C5.60271 7.26252 5.58116 7.17832 5.56671 7.11782C5.55949 7.08755 5.55403 7.06316 5.55014 7.04517L5.54548 7.02302L5.54399 7.01565L5.54344 7.01291L5.54322 7.01178C5.54322 7.01178 5.54303 7.01081 6.26431 6.87052L5.54322 7.01178C5.51228 6.8527 5.53461 6.68687 5.60708 6.54191L6.7616 4.23283C6.79773 4.16059 6.79593 4.07508 6.75669 4.00439L5.55832 1.84571C5.51508 1.76783 5.43305 1.7196 5.34415 1.7196H2.85921ZM7.04369 6.9548L7.04405 6.95603C7.09029 7.11505 7.16626 7.34539 7.28227 7.61675C7.51556 8.16244 7.90272 8.8553 8.51869 9.47127M8.51869 9.47127C9.1346 10.0872 9.82584 10.4728 10.3696 10.7045C10.64 10.8197 10.8695 10.895 11.0278 10.9407L13.0938 9.90837C13.6002 9.65515 14.1989 9.66826 14.6937 9.94334L16.8585 11.1469C17.4027 11.4494 17.74 12.023 17.74 12.6454V15.1308C17.74 16.8558 16.1113 18.1811 14.3955 17.6021C11.9171 16.7659 7.95263 15.1402 5.40124 12.5888C2.84981 10.0374 1.22409 6.07293 0.387839 3.59458C-0.191106 1.87874 1.13421 0.25 2.85921 0.25H5.34415C5.96702 0.25 6.54082 0.587845 6.84314 1.1323L8.04157 3.2911C8.31614 3.7857 8.32911 4.38401 8.07603 4.8901L7.04369 6.9548" fill="#222222"/>
</svg>
