<svg width="18" height="15" viewBox="0 0 18 15" fill="none" xmlns="http://www.w3.org/2000/svg">
<path fill-rule="evenodd" clip-rule="evenodd" d="M0.0410156 1.25C0.0410156 0.904822 0.320838 0.625 0.666016 0.625H17.3327C17.6779 0.625 17.9577 0.904822 17.9577 1.25V13.75C17.9577 14.0952 17.6779 14.375 17.3327 14.375H0.666016C0.320838 14.375 0.0410156 14.0952 0.0410156 13.75V1.25ZM1.29102 1.875V13.125H16.7077V1.875H1.29102Z" fill="#242B35"/>
<path fill-rule="evenodd" clip-rule="evenodd" d="M0.166052 0.875037C0.373159 0.598894 0.76491 0.54293 1.04105 0.750037L8.99939 6.71879L16.9577 0.750037C17.2339 0.54293 17.6256 0.598894 17.8327 0.875037C18.0398 1.15118 17.9839 1.54293 17.7077 1.75004L9.37439 8.00004C9.15216 8.1667 8.84661 8.1667 8.62439 8.00004L0.291052 1.75004C0.01491 1.54293 -0.0410544 1.15118 0.166052 0.875037Z" fill="#242B35"/>
<path fill-rule="evenodd" clip-rule="evenodd" d="M0.0410156 1.25C0.0410156 0.904822 0.320838 0.625 0.666016 0.625H8.99935C9.34453 0.625 9.62435 0.904822 9.62435 1.25C9.62435 1.59518 9.34453 1.875 8.99935 1.875H1.29102V7.5C1.29102 7.84518 1.01119 8.125 0.666016 8.125C0.320838 8.125 0.0410156 7.84518 0.0410156 7.5V1.25Z" fill="#242B35"/>
<path fill-rule="evenodd" clip-rule="evenodd" d="M8.37435 1.25C8.37435 0.904822 8.65417 0.625 8.99935 0.625H17.3327C17.6779 0.625 17.9577 0.904822 17.9577 1.25V7.5C17.9577 7.84518 17.6779 8.125 17.3327 8.125C16.9875 8.125 16.7077 7.84518 16.7077 7.5V1.875H8.99935C8.65417 1.875 8.37435 1.59518 8.37435 1.25Z" fill="#242B35"/>
</svg>
