<svg width="24" height="24" viewBox="0 0 24 24" fill="none" xmlns="http://www.w3.org/2000/svg">
<path d="M17.0303 6.96967C17.3232 7.26256 17.3232 7.73744 17.0303 8.03033L8.53033 16.5303C8.23744 16.8232 7.76256 16.8232 7.46967 16.5303C7.17678 16.2374 7.17678 15.7626 7.46967 15.4697L15.9697 6.96967C16.2626 6.67678 16.7374 6.67678 17.0303 6.96967Z" fill="#222222"/>
<path d="M6.75 7.5C6.75 7.08579 7.08579 6.75 7.5 6.75H16.5C16.9142 6.75 17.25 7.08579 17.25 7.5V16.5C17.25 16.9142 16.9142 17.25 16.5 17.25C16.0858 17.25 15.75 16.9142 15.75 16.5V8.25H7.5C7.08579 8.25 6.75 7.91421 6.75 7.5Z" fill="#222222"/>
</svg>
