<svg width="211" height="78" viewBox="0 0 211 78" fill="none" xmlns="http://www.w3.org/2000/svg">
<g opacity="0.11">
<rect y="29" width="6" height="32" rx="3" fill="#EBEBF9"/>
<rect x="12" y="17" width="6" height="56" rx="3" fill="#C2C3EC"/>
<rect x="24" width="6" height="90" rx="3" fill="#ADAFE5"/>
<rect x="36" width="6" height="90" rx="3" fill="#8587D9"/>
<rect x="48" y="17" width="6" height="56" rx="3" fill="#5C5FCC"/>
<rect x="60" y="29" width="6" height="32" rx="3" fill="#EBEBF9"/>
<rect x="72" y="17" width="6" height="56" rx="3" fill="#5C5FCC"/>
<rect x="84" width="6" height="90" rx="3" fill="#8587D9"/>
<rect x="96" width="6" height="90" rx="3" fill="#ADAFE5"/>
<rect x="108" y="17" width="6" height="56" rx="3" fill="#C2C3EC"/>
<rect x="120" y="29" width="6" height="32" rx="3" fill="#EBEBF9"/>
<rect x="132" y="17" width="6" height="56" rx="3" fill="#C2C3EC"/>
<rect x="144" width="6" height="90" rx="3" fill="#ADAFE5"/>
<rect x="156" width="6" height="90" rx="3" fill="#8587D9"/>
<rect x="168" y="17" width="6" height="56" rx="3" fill="#5C5FCC"/>
<rect x="180" y="29" width="6" height="32" rx="3" fill="#EBEBF9"/>
<rect x="192" y="17" width="7" height="56" rx="3.5" fill="#5C5FCC"/>
<rect x="205" width="6" height="90" rx="3" fill="#8587D9"/>
</g>
</svg>
