<svg width="17" height="16" viewBox="0 0 17 16" fill="none" xmlns="http://www.w3.org/2000/svg">
<path fill-rule="evenodd" clip-rule="evenodd" d="M10.0013 3.66667C10.0013 2.47005 10.9714 1.5 12.168 1.5C13.3646 1.5 14.3346 2.47005 14.3346 3.66667C14.3346 4.86328 13.3646 5.83333 12.168 5.83333C10.9714 5.83333 10.0013 4.86328 10.0013 3.66667ZM12.168 2.5C11.5236 2.5 11.0013 3.02234 11.0013 3.66667C11.0013 4.31099 11.5236 4.83333 12.168 4.83333C12.8123 4.83333 13.3346 4.31099 13.3346 3.66667C13.3346 3.02234 12.8123 2.5 12.168 2.5Z" fill="white"/>
<path fill-rule="evenodd" clip-rule="evenodd" d="M2.66797 8C2.66797 6.80339 3.63803 5.83333 4.83464 5.83333C6.03124 5.83333 7.0013 6.80339 7.0013 8C7.0013 9.19661 6.03124 10.1667 4.83464 10.1667C3.63803 10.1667 2.66797 9.19661 2.66797 8ZM4.83464 6.83333C4.19031 6.83333 3.66797 7.35568 3.66797 8C3.66797 8.64432 4.19031 9.16667 4.83464 9.16667C5.47896 9.16667 6.0013 8.64432 6.0013 8C6.0013 7.35568 5.47896 6.83333 4.83464 6.83333Z" fill="white"/>
<path fill-rule="evenodd" clip-rule="evenodd" d="M10.929 4.26572C11.0721 4.5019 10.9966 4.80936 10.7605 4.95245L6.54009 7.50942C6.30391 7.65251 5.99645 7.57705 5.85336 7.34087C5.71027 7.10469 5.78573 6.79723 6.02191 6.65414L10.2423 4.09718C10.4785 3.95409 10.7859 4.02955 10.929 4.26572Z" fill="white"/>
<path fill-rule="evenodd" clip-rule="evenodd" d="M5.85054 8.60029C5.99102 8.36255 6.29763 8.28371 6.53537 8.42419L10.9822 11.0519C11.2199 11.1923 11.2987 11.4989 11.1583 11.7367C11.0178 11.9744 10.7112 12.0533 10.4734 11.9128L6.02664 9.28512C5.7889 9.14463 5.71006 8.83802 5.85054 8.60029Z" fill="white"/>
<path fill-rule="evenodd" clip-rule="evenodd" d="M12.168 11.1667C11.5236 11.1667 11.0013 11.689 11.0013 12.3333C11.0013 12.9777 11.5236 13.5 12.168 13.5C12.8123 13.5 13.3346 12.9777 13.3346 12.3333C13.3346 11.689 12.8123 11.1667 12.168 11.1667ZM10.0013 12.3333C10.0013 11.1367 10.9714 10.1667 12.168 10.1667C13.3646 10.1667 14.3346 11.1367 14.3346 12.3333C14.3346 13.5299 13.3646 14.5 12.168 14.5C10.9714 14.5 10.0013 13.5299 10.0013 12.3333Z" fill="white"/>
</svg>
