<svg width="16" height="16" viewBox="0 0 16 16" fill="none" xmlns="http://www.w3.org/2000/svg">
<path fill-rule="evenodd" clip-rule="evenodd" d="M7.99891 1.16602C8.1893 1.16553 8.36344 1.2732 8.44807 1.44373L10.3958 5.36825L14.7395 6.00161C14.9276 6.02904 15.0838 6.16073 15.1427 6.34143C15.2016 6.52214 15.153 6.72062 15.0172 6.8536L11.858 9.94755L12.6084 14.2467C12.6412 14.435 12.5639 14.6255 12.4091 14.7376C12.2544 14.8497 12.0493 14.8638 11.8806 14.7739L8.00022 12.7057L4.12068 14.7739C3.95194 14.8639 3.74668 14.8497 3.59189 14.7374C3.4371 14.6251 3.35991 14.4344 3.39302 14.2461L4.14885 9.94754L0.984465 6.85391C0.848451 6.72094 0.799668 6.52231 0.858608 6.34145C0.917547 6.1606 1.074 6.02885 1.26225 6.00156L5.62962 5.36826L7.55119 1.44604C7.63495 1.27507 7.80853 1.16651 7.99891 1.16602ZM8.0031 2.79656L6.41154 6.04519C6.33889 6.19348 6.19771 6.29634 6.03428 6.32004L2.40689 6.84604L5.0365 9.41685C5.15452 9.53223 5.20799 9.69842 5.17941 9.86097L4.55558 13.4088L7.76498 11.6979C7.91199 11.6195 8.08837 11.6195 8.23538 11.6978L11.4471 13.4097L10.8276 9.86035C10.7993 9.69813 10.8527 9.53238 10.9704 9.41716L13.5963 6.84549L9.99229 6.31998C9.82992 6.29631 9.6895 6.19447 9.61656 6.0475L8.0031 2.79656Z" fill="#3337BF"/>
</svg>
