<svg width="20" height="20" viewBox="0 0 20 20" fill="none" xmlns="http://www.w3.org/2000/svg">
<rect x="0.5" y="0.5" width="19" height="19" rx="9.5" stroke="#242B35"/>
<path d="M9.87784 14.6193C9.29261 14.6193 8.76989 14.5185 8.30966 14.3168C7.85227 14.1151 7.49006 13.8352 7.22301 13.4773C6.95881 13.1165 6.81676 12.6989 6.79688 12.2244H8.13494C8.15199 12.483 8.23864 12.7074 8.39489 12.8977C8.55398 13.0852 8.76136 13.2301 9.01705 13.3324C9.27273 13.4347 9.55682 13.4858 9.86932 13.4858C10.2131 13.4858 10.517 13.4261 10.7812 13.3068C11.0483 13.1875 11.2571 13.0213 11.4077 12.8082C11.5582 12.5923 11.6335 12.3438 11.6335 12.0625C11.6335 11.7699 11.5582 11.5128 11.4077 11.2912C11.2599 11.0668 11.0426 10.8906 10.7557 10.7628C10.4716 10.6349 10.1278 10.571 9.72443 10.571H8.98722V9.49716H9.72443C10.0483 9.49716 10.3324 9.43892 10.5767 9.32244C10.8239 9.20597 11.017 9.04403 11.1562 8.83665C11.2955 8.62642 11.3651 8.38068 11.3651 8.09943C11.3651 7.82955 11.304 7.59517 11.1818 7.39631C11.0625 7.1946 10.892 7.03693 10.6705 6.9233C10.4517 6.80966 10.1932 6.75284 9.89489 6.75284C9.6108 6.75284 9.34517 6.8054 9.09801 6.91051C8.85369 7.01278 8.65483 7.16051 8.50142 7.35369C8.34801 7.54403 8.26563 7.77273 8.25426 8.03977H6.98011C6.99432 7.56818 7.13352 7.15341 7.39773 6.79545C7.66477 6.4375 8.01705 6.15767 8.45455 5.95597C8.89205 5.75426 9.37784 5.65341 9.91193 5.65341C10.4716 5.65341 10.9545 5.76278 11.3608 5.98153C11.7699 6.19744 12.0852 6.4858 12.3068 6.84659C12.5313 7.20739 12.642 7.60227 12.6392 8.03125C12.642 8.51989 12.5057 8.93466 12.2301 9.27557C11.9574 9.61648 11.5938 9.84517 11.1392 9.96165V10.0298C11.7188 10.1179 12.1676 10.348 12.4858 10.7202C12.8068 11.0923 12.9659 11.554 12.9631 12.1051C12.9659 12.5852 12.8324 13.0156 12.5625 13.3963C12.2955 13.777 11.9304 14.0767 11.4673 14.2955C11.0043 14.5114 10.4744 14.6193 9.87784 14.6193Z" fill="#242B35"/>
</svg>
