<svg width="20" height="20" viewBox="0 0 20 20" fill="none" xmlns="http://www.w3.org/2000/svg">
<rect x="0.5" y="0.5" width="19" height="19" rx="9.5" stroke="#242B35"/>
<path d="M6.83949 14.5V13.5455L9.79261 10.4858C10.108 10.1534 10.3679 9.86222 10.5724 9.61222C10.7798 9.35937 10.9347 9.11932 11.0369 8.89205C11.1392 8.66477 11.1903 8.4233 11.1903 8.16761C11.1903 7.87784 11.1222 7.62784 10.9858 7.41761C10.8494 7.20455 10.6634 7.04119 10.4276 6.92756C10.1918 6.81108 9.92614 6.75284 9.63068 6.75284C9.31818 6.75284 9.04545 6.81676 8.8125 6.9446C8.57955 7.07244 8.40057 7.25284 8.27557 7.4858C8.15057 7.71875 8.08807 7.99148 8.08807 8.30398H6.83097C6.83097 7.77273 6.95313 7.30824 7.19744 6.91051C7.44176 6.51278 7.77699 6.20455 8.20312 5.9858C8.62926 5.7642 9.11364 5.65341 9.65625 5.65341C10.2045 5.65341 10.6875 5.76278 11.1051 5.98153C11.5256 6.19744 11.8537 6.4929 12.0895 6.8679C12.3253 7.24006 12.4432 7.66051 12.4432 8.12926C12.4432 8.45312 12.3821 8.76989 12.2599 9.07955C12.1406 9.3892 11.9318 9.73437 11.6335 10.1151C11.3352 10.4929 10.9205 10.9517 10.3892 11.4915L8.65483 13.3068V13.3707H12.5838V14.5H6.83949Z" fill="#242B35"/>
</svg>
