<svg width="40" height="40" viewBox="0 0 40 40" fill="none" xmlns="http://www.w3.org/2000/svg">
<path fill-rule="evenodd" clip-rule="evenodd" d="M14.5827 3.33398C14.5827 2.64363 15.1423 2.08398 15.8327 2.08398H20.8327C21.523 2.08398 22.0827 2.64363 22.0827 3.33398C22.0827 4.13646 23.002 5.41732 24.9993 5.41732C26.9967 5.41732 27.916 4.13646 27.916 3.33398C27.916 2.64363 28.4757 2.08398 29.166 2.08398H34.166C34.8564 2.08398 35.416 2.64363 35.416 3.33398V28.334C35.416 29.0243 34.8564 29.584 34.166 29.584H29.166C28.4757 29.584 27.916 29.0243 27.916 28.334C27.916 27.4536 27.0219 26.2507 24.9993 26.2507C24.309 26.2507 23.7493 25.691 23.7493 25.0007C23.7493 24.3103 24.309 23.7507 24.9993 23.7507C27.4848 23.7507 29.5952 25.0968 30.2248 27.084H32.916V4.58398H30.2129C29.5721 6.50751 27.4879 7.91732 24.9993 7.91732C22.5108 7.91732 20.4266 6.50751 19.7858 4.58398H17.0827V15.0007C17.0827 15.691 16.523 16.2507 15.8327 16.2507C15.1423 16.2507 14.5827 15.691 14.5827 15.0007V3.33398Z" fill="#222222"/>
<path fill-rule="evenodd" clip-rule="evenodd" d="M5.41602 11.6673C5.41602 10.977 5.97566 10.4173 6.66602 10.4173H11.666C12.3564 10.4173 12.916 10.977 12.916 11.6673C12.916 12.4698 13.8353 13.7507 15.8327 13.7507C17.83 13.7507 18.7493 12.4698 18.7493 11.6673C18.7493 10.977 19.309 10.4173 19.9993 10.4173H24.9993C25.6897 10.4173 26.2493 10.977 26.2493 11.6673V36.6673C26.2493 37.3577 25.6897 37.9173 24.9993 37.9173H19.9993C19.309 37.9173 18.7493 37.3577 18.7493 36.6673C18.7493 35.7869 17.8552 34.584 15.8327 34.584C13.8102 34.584 12.916 35.7869 12.916 36.6673C12.916 37.3577 12.3564 37.9173 11.666 37.9173H6.66602C5.97566 37.9173 5.41602 37.3577 5.41602 36.6673V11.6673ZM7.91602 12.9173V35.4173H10.6073C11.2368 33.4302 13.3472 32.084 15.8327 32.084C18.3182 32.084 20.4285 33.4302 21.0581 35.4173H23.7493V12.9173H21.0462C20.4055 14.8408 18.3212 16.2507 15.8327 16.2507C13.3441 16.2507 11.2599 14.8408 10.6192 12.9173H7.91602Z" fill="#222222"/>
<path d="M11.666 21.6673C12.5865 21.6673 13.3327 20.9211 13.3327 20.0007C13.3327 19.0802 12.5865 18.334 11.666 18.334C10.7455 18.334 9.99935 19.0802 9.99935 20.0007C9.99935 20.9211 10.7455 21.6673 11.666 21.6673Z" fill="#222222"/>
<path d="M15.8327 21.6673C16.7532 21.6673 17.4993 20.9211 17.4993 20.0007C17.4993 19.0802 16.7532 18.334 15.8327 18.334C14.9122 18.334 14.166 19.0802 14.166 20.0007C14.166 20.9211 14.9122 21.6673 15.8327 21.6673Z" fill="#222222"/>
<path d="M19.9993 21.6673C20.9198 21.6673 21.666 20.9211 21.666 20.0007C21.666 19.0802 20.9198 18.334 19.9993 18.334C19.0789 18.334 18.3327 19.0802 18.3327 20.0007C18.3327 20.9211 19.0789 21.6673 19.9993 21.6673Z" fill="#222222"/>
</svg>
