<svg width="40" height="41" viewBox="0 0 40 41" fill="none" xmlns="http://www.w3.org/2000/svg">
<path fill-rule="evenodd" clip-rule="evenodd" d="M14.5827 4.29102C14.5827 3.60066 15.1423 3.04102 15.8327 3.04102H20.8327C21.523 3.04102 22.0827 3.60066 22.0827 4.29102C22.0827 5.09349 23.002 6.37435 24.9993 6.37435C26.9967 6.37435 27.916 5.09349 27.916 4.29102C27.916 3.60066 28.4757 3.04102 29.166 3.04102H34.166C34.8564 3.04102 35.416 3.60066 35.416 4.29102V29.291C35.416 29.9814 34.8564 30.541 34.166 30.541H29.166C28.4757 30.541 27.916 29.9814 27.916 29.291C27.916 28.4106 27.0219 27.2077 24.9993 27.2077C24.309 27.2077 23.7493 26.648 23.7493 25.9577C23.7493 25.2673 24.309 24.7077 24.9993 24.7077C27.4848 24.7077 29.5952 26.0539 30.2248 28.041H32.916V5.54102H30.2129C29.5721 7.46454 27.4879 8.87435 24.9993 8.87435C22.5108 8.87435 20.4266 7.46454 19.7858 5.54102H17.0827V15.9577C17.0827 16.648 16.523 17.2077 15.8327 17.2077C15.1423 17.2077 14.5827 16.648 14.5827 15.9577V4.29102Z" fill="#222222"/>
<path fill-rule="evenodd" clip-rule="evenodd" d="M5.41602 12.6243C5.41602 11.934 5.97566 11.3743 6.66602 11.3743H11.666C12.3564 11.3743 12.916 11.934 12.916 12.6243C12.916 13.4268 13.8353 14.7077 15.8327 14.7077C17.83 14.7077 18.7493 13.4268 18.7493 12.6243C18.7493 11.934 19.309 11.3743 19.9993 11.3743H24.9993C25.6897 11.3743 26.2493 11.934 26.2493 12.6243V37.6244C26.2493 38.3147 25.6897 38.8744 24.9993 38.8744H19.9993C19.309 38.8744 18.7493 38.3147 18.7493 37.6244C18.7493 36.744 17.8552 35.541 15.8327 35.541C13.8102 35.541 12.916 36.744 12.916 37.6244C12.916 38.3147 12.3564 38.8744 11.666 38.8744H6.66602C5.97566 38.8744 5.41602 38.3147 5.41602 37.6244V12.6243ZM7.91602 13.8743V36.3744H10.6073C11.2368 34.3872 13.3472 33.041 15.8327 33.041C18.3182 33.041 20.4285 34.3872 21.0581 36.3744H23.7493V13.8743H21.0462C20.4055 15.7979 18.3212 17.2077 15.8327 17.2077C13.3441 17.2077 11.2599 15.7979 10.6192 13.8743H7.91602Z" fill="#222222"/>
<path d="M11.666 22.6243C12.5865 22.6243 13.3327 21.8782 13.3327 20.9577C13.3327 20.0372 12.5865 19.291 11.666 19.291C10.7455 19.291 9.99935 20.0372 9.99935 20.9577C9.99935 21.8782 10.7455 22.6243 11.666 22.6243Z" fill="#222222"/>
<path d="M15.8327 22.6243C16.7532 22.6243 17.4993 21.8782 17.4993 20.9577C17.4993 20.0372 16.7532 19.291 15.8327 19.291C14.9122 19.291 14.166 20.0372 14.166 20.9577C14.166 21.8782 14.9122 22.6243 15.8327 22.6243Z" fill="#222222"/>
<path d="M19.9993 22.6243C20.9198 22.6243 21.666 21.8782 21.666 20.9577C21.666 20.0372 20.9198 19.291 19.9993 19.291C19.0789 19.291 18.3327 20.0372 18.3327 20.9577C18.3327 21.8782 19.0789 22.6243 19.9993 22.6243Z" fill="#222222"/>
</svg>
