<svg width="20" height="20" viewBox="0 0 20 20" fill="none" xmlns="http://www.w3.org/2000/svg">
<path fill-rule="evenodd" clip-rule="evenodd" d="M9.99935 4.79102C6.43251 4.79102 3.54102 7.68251 3.54102 11.2493C3.54102 14.8162 6.43251 17.7077 9.99935 17.7077C13.5662 17.7077 16.4577 14.8162 16.4577 11.2493C16.4577 7.68251 13.5662 4.79102 9.99935 4.79102ZM2.29102 11.2493C2.29102 6.99215 5.74215 3.54102 9.99935 3.54102C14.2565 3.54102 17.7077 6.99215 17.7077 11.2493C17.7077 15.5065 14.2565 18.9577 9.99935 18.9577C5.74215 18.9577 2.29102 15.5065 2.29102 11.2493Z" fill="white"/>
<path fill-rule="evenodd" clip-rule="evenodd" d="M6.87435 1.66602C6.87435 1.32084 7.15417 1.04102 7.49935 1.04102H12.4993C12.8445 1.04102 13.1243 1.32084 13.1243 1.66602C13.1243 2.01119 12.8445 2.29102 12.4993 2.29102H7.49935C7.15417 2.29102 6.87435 2.01119 6.87435 1.66602Z" fill="white"/>
<path fill-rule="evenodd" clip-rule="evenodd" d="M9.99935 7.29102C10.3445 7.29102 10.6243 7.57084 10.6243 7.91602V11.2493C10.6243 11.5945 10.3445 11.8743 9.99935 11.8743C9.65417 11.8743 9.37435 11.5945 9.37435 11.2493V7.91602C9.37435 7.57084 9.65417 7.29102 9.99935 7.29102Z" fill="white"/>
<path fill-rule="evenodd" clip-rule="evenodd" d="M9.37435 11.2493C9.37435 10.9042 9.65417 10.6243 9.99935 10.6243H13.3327C13.6779 10.6243 13.9577 10.9042 13.9577 11.2493C13.9577 11.5945 13.6779 11.8743 13.3327 11.8743H9.99935C9.65417 11.8743 9.37435 11.5945 9.37435 11.2493Z" fill="white"/>
<path fill-rule="evenodd" clip-rule="evenodd" d="M9.99935 1.04102C10.3445 1.04102 10.6243 1.32084 10.6243 1.66602V3.33268C10.6243 3.67786 10.3445 3.95768 9.99935 3.95768C9.65417 3.95768 9.37435 3.67786 9.37435 3.33268V1.66602C9.37435 1.32084 9.65417 1.04102 9.99935 1.04102Z" fill="white"/>
</svg>
