<svg width="24" height="25" viewBox="0 0 24 25" fill="none" xmlns="http://www.w3.org/2000/svg">
<path fill-rule="evenodd" clip-rule="evenodd" d="M1.25 12.957C1.25 7.01997 6.06294 2.20703 12 2.20703C17.9371 2.20703 22.75 7.01997 22.75 12.957C22.75 18.8941 17.9371 23.707 12 23.707C6.06294 23.707 1.25 18.8941 1.25 12.957ZM12 3.70703C6.89136 3.70703 2.75 7.84839 2.75 12.957C2.75 18.0657 6.89136 22.207 12 22.207C17.1086 22.207 21.25 18.0657 21.25 12.957C21.25 7.84839 17.1086 3.70703 12 3.70703Z" fill="#222222"/>
<path fill-rule="evenodd" clip-rule="evenodd" d="M12.0041 6.20703C12.4183 6.20707 12.7541 6.54289 12.754 6.95711L12.7534 12.6508L16.7734 16.6708C17.0663 16.9637 17.0663 17.4386 16.7734 17.7315C16.4806 18.0244 16.0057 18.0244 15.7128 17.7315L11.4731 13.4918C11.3324 13.3511 11.2534 13.1603 11.2534 12.9614L11.254 6.95696C11.2541 6.54274 11.5899 6.20699 12.0041 6.20703Z" fill="#222222"/>
</svg>
