<svg width="16" height="16" viewBox="0 0 16 16" fill="none" xmlns="http://www.w3.org/2000/svg">
<path d="M5.83333 4.00065C5.83333 2.80403 6.80338 1.83398 8 1.83398C9.19662 1.83398 10.1667 2.80403 10.1667 4.00065C10.1667 5.19727 9.19662 6.16732 8 6.16732C6.80338 6.16732 5.83333 5.19727 5.83333 4.00065ZM8 0.833984C6.2511 0.833984 4.83333 2.25175 4.83333 4.00065C4.83333 5.74955 6.2511 7.16732 8 7.16732C9.7489 7.16732 11.1667 5.74955 11.1667 4.00065C11.1667 2.25175 9.7489 0.833984 8 0.833984ZM8 8.16732C4.41016 8.16732 1.5 11.0775 1.5 14.6673C1.5 14.9435 1.72386 15.1673 2 15.1673C2.27614 15.1673 2.5 14.9435 2.5 14.6673C2.5 11.6298 4.96244 9.16732 8 9.16732C11.0376 9.16732 13.5 11.6298 13.5 14.6673C13.5 14.9435 13.7239 15.1673 14 15.1673C14.2761 15.1673 14.5 14.9435 14.5 14.6673C14.5 11.0775 11.5898 8.16732 8 8.16732Z" fill="#3337BF"/>
</svg>
