<svg width="14" height="16" viewBox="0 0 14 16" fill="none" xmlns="http://www.w3.org/2000/svg">
<path d="M4.83333 3.95768C4.83333 2.76107 5.80338 1.79102 7 1.79102C8.19662 1.79102 9.16667 2.76107 9.16667 3.95768C9.16667 5.1543 8.19662 6.12435 7 6.12435C5.80338 6.12435 4.83333 5.1543 4.83333 3.95768ZM7 0.791016C5.2511 0.791016 3.83333 2.20878 3.83333 3.95768C3.83333 5.70658 5.2511 7.12435 7 7.12435C8.7489 7.12435 10.1667 5.70658 10.1667 3.95768C10.1667 2.20878 8.7489 0.791016 7 0.791016ZM7 8.12435C3.41016 8.12435 0.5 11.0345 0.5 14.6243C0.5 14.9005 0.723858 15.1243 1 15.1243C1.27614 15.1243 1.5 14.9005 1.5 14.6243C1.5 11.5868 3.96244 9.12435 7 9.12435C10.0376 9.12435 12.5 11.5868 12.5 14.6243C12.5 14.9005 12.7239 15.1243 13 15.1243C13.2761 15.1243 13.5 14.9005 13.5 14.6243C13.5 11.0345 10.5898 8.12435 7 8.12435Z" fill="white"/>
</svg>
